<svg xmlns="http://www.w3.org/2000/svg" viewBox="0 0 512 512" role="img" aria-labelledby="title desc">
<title id="title">Tenant Shield Logo</title>
<desc id="desc">Blue shield with a simplified house outline and chimney.</desc>
<defs>
  <linearGradient id="shieldGradient" x1="0" y1="0" x2="512" y2="0" gradientUnits="userSpaceOnUse">
    <stop offset="0%" stop-color="#1c63ff"/>
    <stop offset="50%" stop-color="#1a5ef7"/>
    <stop offset="100%" stop-color="#2b6dff"/>
  </linearGradient>
</defs>
<path fill="url(#shieldGradient)" d="M256 24 448 104v148c0 120-88 224-192 252-104-28-192-132-192-252V104z"/>
<g fill="none" stroke="#0c0c0f" stroke-width="32" stroke-linecap="round" stroke-linejoin="round">
  <path d="M176 256v134c0 23.2 18.8 42 42 42h76c23.2 0 42-18.8 42-42V256"/>
  <path d="M136 244 256 148l120 96"/>
  <path d="M332 200h44v94"/>
</g>
<g fill="#0c0c0f">
  <rect x="224" y="280" width="26" height="26" rx="4"/>
  <rect x="262" y="280" width="26" height="26" rx="4"/>
  <rect x="224" y="318" width="26" height="26" rx="4"/>
  <rect x="262" y="318" width="26" height="26" rx="4"/>
</g>
</svg>
